<svg xmlns="http://www.w3.org/2000/svg" width="262" height="239" viewBox="0 0 262 239">
<g>
<path d="M 184.85,167.61 L 186.10,168.00 L 188.33,169.29 L 189.39,170.01 L 191.18,171.83 L 192.01,172.80 L 193.29,175.02 L 193.86,176.16 L 194.57,178.63 L 194.84,179.89 L 194.89,182.47 L 194.82,183.75 L 194.15,186.30 L 192.25,189.91 L 191.66,190.73 L 189.96,192.24 L 189.05,192.96 L 186.95,194.18 L 185.87,194.73 L 183.65,195.50 L 180.50,196.00 L 180.09,196.00 L 179.06,195.86 L 178.53,195.77 L 177.37,195.48 L 176.21,195.17 L 174.07,194.25 L 172.72,193.56 L 170.61,191.98 L 169.65,191.15 L 168.29,189.21 L 167.70,188.17 L 167.00,185.74 L 166.65,181.39 L 166.66,180.33 L 166.95,178.33 L 167.14,177.35 L 167.75,175.55 L 168.10,174.68 L 169.01,173.10 L 169.50,172.34 L 170.69,171.00 L 171.31,170.37 L 172.75,169.31 L 173.49,168.82 L 175.15,168.05 L 176.01,167.71 L 177.86,167.27 L 180.85,167.00 L 182.26,167.00 M 226.00,195.00 L 221.28,195.00 L 220.16,194.92 L 219.65,194.86 L 218.92,194.66 L 218.60,194.54 L 218.22,194.20 L 218.00,193.51 L 218.00,193.21 L 217.87,192.85 L 217.77,192.72 L 217.37,192.70 L 217.13,192.74 L 216.38,193.08 L 214.75,194.01 L 213.81,194.58 L 212.14,195.33 L 211.33,195.64 L 209.79,195.88 L 209.03,195.94 L 207.51,195.68 L 206.74,195.49 L 205.10,194.74 L 204.03,194.19 L 202.32,192.79 L 201.53,192.03 L 200.36,190.19 L 199.85,189.22 L 199.20,186.89 L 198.79,182.83 L 198.78,181.32 L 199.10,178.57 L 199.32,177.24 L 200.06,174.87 L 200.48,173.75 L 201.59,171.82 L 202.19,170.91 L 203.62,169.47 L 204.36,168.81 L 206.05,167.89 L 206.92,167.51 L 208.82,167.17 L 209.79,167.07 L 211.85,167.35 L 215.05,168.53 L 218.00,170.05 L 218.00,156.00 L 226.00,156.00 M 94.35,167.49 L 96.78,168.28 L 97.91,168.77 L 99.70,170.28 L 100.51,171.13 L 101.70,173.42 L 102.88,177.79 L 103.10,179.21 L 103.30,181.60 L 103.33,182.12 L 103.32,182.88 L 103.18,183.49 L 103.11,183.56 L 102.32,183.68 L 101.84,183.75 L 100.37,183.85 L 99.57,183.90 L 97.61,183.96 L 94.33,184.00 L 93.19,184.00 L 91.10,184.06 L 90.10,184.10 L 88.45,184.23 L 87.69,184.30 L 86.66,184.48 L 86.00,184.78 L 86.00,184.99 L 86.48,186.01 L 87.63,187.89 L 88.00,188.41 L 88.68,189.12 L 89.05,189.43 L 89.96,189.77 L 90.48,189.90 L 91.95,189.95 L 95.13,189.80 L 95.83,189.75 L 96.98,189.67 L 97.52,189.64 L 98.39,189.61 L 99.20,189.60 L 100.15,189.76 L 100.53,189.88 L 100.86,190.39 L 101.00,191.63 L 101.00,192.25 L 100.70,193.41 L 99.97,194.52 L 99.68,194.70 L 98.80,194.99 L 98.32,195.13 L 97.14,195.33 L 95.90,195.52 L 92.93,195.62 L 91.44,195.63 L 88.58,195.38 L 87.92,195.29 L 86.74,195.06 L 86.18,194.93 L 85.31,194.60 L 84.27,194.12 L 82.51,192.63 L 81.69,191.80 L 80.40,189.68 L 79.83,188.54 L 79.07,185.88 L 78.60,181.40 L 78.59,180.29 L 78.86,178.22 L 79.04,177.21 L 79.66,175.35 L 80.01,174.45 L 80.94,172.84 L 81.44,172.07 L 82.65,170.74 L 83.29,170.11 L 84.75,169.09 L 85.50,168.62 L 87.18,167.94 L 88.04,167.64 L 89.90,167.34 L 92.87,167.34 M 146.75,158.00 L 148.41,158.00 L 151.34,158.16 L 152.75,158.27 L 155.20,158.66 L 156.36,158.89 L 158.35,159.52 L 159.28,159.87 L 160.83,160.78 L 161.56,161.26 L 162.70,162.45 L 163.22,163.08 L 163.99,164.57 L 164.33,165.36 L 164.74,167.17 L 164.99,170.26 L 164.99,170.98 L 164.83,172.24 L 164.72,172.85 L 164.29,173.99 L 164.04,174.56 L 163.28,175.72 L 161.70,177.63 L 160.99,178.41 L 159.78,179.53 L 159.18,180.03 L 157.94,180.70 L 157.29,181.00 L 155.68,181.40 L 152.45,181.86 L 146.50,182.50 L 146.20,188.75 L 145.90,195.00 L 138.00,195.00 L 138.00,158.00 M 113.07,168.09 L 113.75,168.17 L 114.70,168.61 L 115.13,168.90 L 115.88,169.96 L 117.21,172.50 L 117.81,173.74 L 118.93,175.68 L 119.19,176.09 L 119.59,176.64 L 120.00,177.00 L 120.08,177.00 L 120.41,176.64 L 120.59,176.42 L 121.07,175.68 L 122.79,172.50 L 123.30,171.44 L 124.09,170.02 L 124.48,169.40 L 125.24,168.67 L 125.66,168.37 L 126.72,168.11 L 128.99,168.00 L 130.09,168.00 L 131.82,168.16 L 132.18,168.21 L 132.68,168.34 L 133.00,168.55 L 133.00,168.63 L 132.68,169.24 L 132.47,169.61 L 131.81,170.70 L 131.44,171.30 L 130.51,172.73 L 128.94,175.09 L 124.87,181.08 L 128.94,187.52 L 129.49,188.40 L 130.51,190.06 L 131.00,190.85 L 131.81,192.21 L 132.17,192.85 L 132.68,193.76 L 133.00,194.48 L 133.00,194.55 L 132.66,194.68 L 132.44,194.74 L 131.74,194.85 L 128.70,195.00 L 127.67,195.00 L 126.24,194.90 L 125.61,194.81 L 124.69,194.36 L 124.27,194.06 L 123.52,193.00 L 122.19,190.45 L 121.88,189.82 L 121.26,188.72 L 120.96,188.20 L 120.39,187.38 L 120.11,187.01 L 119.65,186.56 L 119.16,186.40 L 119.05,186.47 L 118.70,186.91 L 118.51,187.18 L 118.05,187.94 L 116.52,190.95 L 116.09,191.91 L 115.41,193.20 L 115.07,193.76 L 114.33,194.41 L 113.92,194.68 L 112.81,194.91 L 110.35,195.00 L 109.15,195.00 L 107.28,194.84 L 106.88,194.79 L 106.34,194.66 L 106.12,194.59 L 106.00,194.45 L 106.00,194.37 L 106.32,193.76 L 106.52,193.40 L 107.17,192.32 L 107.54,191.74 L 108.45,190.33 L 110.00,188.00 L 110.55,187.19 L 111.55,185.66 L 112.03,184.92 L 112.82,183.65 L 113.19,183.06 L 113.68,182.18 L 114.00,181.46 L 114.00,181.37 L 113.86,181.00 L 113.76,180.78 L 113.46,180.22 L 112.18,178.15 L 111.92,177.79 L 111.29,176.83 L 110.96,176.32 L 110.22,175.18 L 108.09,171.75 L 105.84,168.00 L 111.55,168.00 M 73.00,195.00 L 65.00,195.00 L 65.00,156.00 L 73.00,156.00 M 59.50,162.24 L 59.40,163.23 L 59.30,163.65 L 58.71,164.15 L 58.33,164.36 L 56.88,164.58 L 56.45,164.62 L 55.36,164.69 L 53.35,164.80 L 47.19,165.09 L 46.49,173.92 L 52.49,174.21 L 53.24,174.24 L 54.46,174.31 L 55.02,174.35 L 55.93,174.43 L 56.78,174.52 L 57.72,174.85 L 58.10,175.06 L 58.39,175.77 L 58.50,177.50 L 58.50,178.24 L 58.40,179.22 L 58.30,179.64 L 57.75,180.14 L 57.39,180.35 L 56.05,180.57 L 55.65,180.62 L 54.65,180.69 L 52.79,180.80 L 47.09,181.10 L 46.79,187.80 L 46.50,194.50 L 42.74,194.81 L 42.13,194.86 L 41.08,194.86 L 40.59,194.84 L 39.81,194.70 L 39.45,194.61 L 38.93,194.34 L 38.71,194.18 L 38.47,193.77 L 38.43,193.68 L 38.37,193.16 L 38.34,192.84 L 38.29,191.91 L 38.26,191.40 L 38.23,190.11 L 38.21,189.43 L 38.18,187.84 L 38.16,186.18 L 38.16,182.16 L 38.22,175.46 L 38.50,158.50 L 59.50,158.50 M 179.90,173.06 L 179.31,173.15 L 178.14,173.67 L 176.49,175.01 L 175.89,175.67 L 175.13,177.65 L 174.67,181.50 L 174.67,182.32 L 174.88,183.83 L 175.01,184.56 L 175.46,185.87 L 175.71,186.50 L 176.37,187.58 L 176.72,188.08 L 177.53,188.89 L 177.96,189.26 L 178.90,189.77 L 179.38,189.98 L 180.40,190.15 L 180.92,190.19 L 181.99,189.99 L 182.53,189.84 L 183.60,189.23 L 184.04,188.94 L 184.88,187.93 L 185.28,187.37 L 185.96,185.99 L 186.28,185.28 L 186.72,183.74 L 187.00,181.50 L 187.00,180.60 L 186.72,178.96 L 186.54,178.17 L 185.95,176.79 L 185.62,176.14 L 184.78,175.06 L 184.33,174.56 L 183.32,173.81 L 182.79,173.49 L 181.66,173.13 L 181.08,173.00 M 211.73,173.00 L 210.34,173.67 L 209.68,174.10 L 208.59,175.51 L 208.10,176.29 L 207.42,178.26 L 207.00,181.67 L 207.00,182.61 L 207.21,184.27 L 207.34,185.07 L 207.79,186.44 L 208.04,187.08 L 208.69,188.12 L 209.04,188.60 L 209.85,189.29 L 210.28,189.59 L 211.22,189.90 L 211.70,190.01 L 212.74,189.92 L 213.26,189.82 L 214.35,189.30 L 214.90,188.98 L 216.00,188.00 L 216.52,187.48 L 217.25,186.16 L 217.57,185.47 L 217.92,183.91 L 218.06,183.11 L 218.06,181.43 L 218.03,180.59 L 217.72,178.94 L 217.54,178.14 L 216.95,176.65 L 216.62,175.94 L 215.79,174.76 L 215.34,174.22 L 214.29,173.47 L 212.50,173.00 M 91.02,172.85 L 90.59,172.98 L 89.72,173.44 L 88.44,174.46 L 88.00,174.91 L 87.29,175.69 L 86.98,176.06 L 86.54,176.69 L 86.36,176.98 L 86.20,177.48 L 86.15,177.71 L 86.27,178.08 L 86.37,178.25 L 86.78,178.51 L 87.02,178.63 L 87.73,178.80 L 88.12,178.87 L 89.13,178.95 L 91.00,179.00 L 92.03,179.00 L 93.51,178.93 L 94.17,178.88 L 95.03,178.66 L 95.40,178.53 L 95.79,178.13 L 95.93,177.90 L 95.98,177.25 L 95.98,176.68 L 95.79,175.68 L 95.66,175.20 L 95.26,174.41 L 95.03,174.05 L 94.46,173.48 L 94.16,173.22 L 93.45,172.89 L 93.08,172.75 L 92.28,172.67 L 91.88,172.67 M 145.90,176.00 L 150.58,176.00 L 152.62,175.46 L 153.58,175.10 L 155.09,173.91 L 155.47,173.53 L 156.03,172.80 L 156.27,172.43 L 156.56,171.70 L 156.67,171.32 L 156.71,170.52 L 156.52,169.16 L 156.29,168.23 L 155.77,166.90 L 155.49,166.31 L 154.71,165.54 L 154.26,165.22 L 153.00,164.86 L 150.32,164.62 L 146.50,164.50 Z" fill="rgba(0,0,0,1)"/>
<path d="M 158.19,135.25 L 155.10,136.80 L 153.54,137.52 L 150.32,138.72 L 148.69,139.28 L 145.32,140.14 L 143.61,140.53 L 140.06,141.08 L 139.34,141.14 L 140.11,141.04 L 141.92,140.69 L 145.54,139.91 L 147.31,139.41 L 150.82,138.34 L 152.51,137.71 L 155.82,136.37 L 157.38,135.61 L 159.08,134.72 M 112.68,33.68 L 111.92,34.44 L 111.67,35.00 L 111.20,36.25 L 110.96,37.16 L 110.74,38.36 L 110.60,39.46 L 110.55,40.13 L 110.44,41.57 L 110.39,42.39 L 110.30,44.10 L 110.26,45.04 L 110.14,49.00 L 110.10,51.18 L 110.06,55.61 L 110.07,57.83 L 110.11,62.26 L 110.16,64.31 L 110.27,68.26 L 110.36,69.89 L 110.45,71.46 L 110.50,72.13 L 110.61,73.39 L 110.68,73.88 L 110.81,74.77 L 110.88,75.05 L 111.03,75.52 L 111.11,75.57 L 111.43,76.27 L 111.56,77.15 L 111.59,77.75 L 111.62,79.07 L 111.59,79.84 L 111.50,81.45 L 111.41,82.33 L 111.26,87.79 L 111.36,89.54 L 111.45,90.29 L 111.65,91.71 L 111.79,92.21 L 112.23,94.07 L 112.34,95.02 L 112.32,95.39 L 112.20,96.07 L 112.05,96.34 L 111.68,96.85 L 111.41,97.08 L 110.72,98.42 L 110.55,99.18 L 110.48,99.69 L 110.35,100.79 L 110.30,101.48 L 110.22,102.95 L 110.18,103.85 L 110.13,105.77 L 110.11,106.91 L 110.09,109.32 L 110.09,110.72 L 110.09,113.67 L 110.10,115.37 L 110.19,122.22 L 110.30,126.42 L 110.37,128.20 L 110.45,129.92 L 110.49,130.67 L 110.57,132.09 L 110.62,132.68 L 110.70,133.76 L 110.75,134.15 L 110.84,134.83 L 110.89,135.00 L 111.94,136.92 L 113.12,138.05 L 113.97,138.54 L 115.84,139.48 L 117.05,139.89 L 119.43,140.60 L 118.90,140.49 L 113.97,138.93 L 111.55,138.08 L 106.98,135.96 L 104.74,134.83 L 100.57,132.17 L 98.53,130.77 L 94.77,127.58 L 92.94,125.93 L 89.61,122.24 L 88.01,120.34 L 85.14,116.18 L 83.77,114.04 L 81.39,109.42 L 78.39,102.00 L 78.06,101.05 L 77.54,98.75 L 77.30,97.54 L 76.94,94.85 L 76.62,92.09 L 76.45,86.00 L 76.45,82.95 L 76.94,77.15 L 77.10,75.77 L 77.54,73.25 L 78.39,70.00 L 79.01,68.16 L 80.48,64.61 L 81.25,62.86 L 83.00,59.50 L 83.91,57.85 L 85.93,54.72 L 86.97,53.18 L 89.24,50.29 L 90.40,48.87 L 92.89,46.25 L 94.16,44.97 L 96.86,42.63 L 98.23,41.50 L 101.11,39.48 L 105.62,36.84 L 106.83,36.21 L 109.09,35.13 L 110.20,34.61 L 112.30,33.73 L 112.93,33.48 M 185.11,103.62 L 184.00,106.71 L 183.41,108.23 L 181.97,111.18 L 181.20,112.63 L 179.42,115.46 L 178.48,116.87 L 176.34,119.63 L 175.79,120.25 L 176.10,119.85 L 178.07,117.16 L 178.97,115.75 L 180.73,112.88 L 181.53,111.39 L 183.06,108.37 L 183.74,106.80 L 185.04,103.63 L 185.38,102.63 M 173.50,49.06 L 175.84,51.69 L 176.97,53.02 L 178.97,55.80 L 179.93,57.20 L 181.60,60.14 L 182.39,61.63 L 183.73,64.73 L 184.36,66.31 L 185.15,68.86 L 183.05,63.63 L 180.99,59.56 L 179.80,57.64 L 177.33,53.86 L 175.94,52.08 L 173.17,48.73 M 158.21,36.82 L 159.75,37.70 L 160.45,38.18 L 157.78,36.58 M 138.30,30.76 L 140.15,30.92 L 143.67,31.47 L 145.41,31.79 L 148.73,32.69 L 150.37,33.19 L 153.54,34.46 L 155.12,35.15 L 156.99,36.16 L 155.40,35.39 L 151.36,33.59 L 149.26,32.88 L 145.96,31.96 L 143.51,31.45 L 142.20,31.26 L 137.60,30.72 M 119.61,31.51 L 120.43,31.32 L 121.35,31.21 M 134.51,30.53 L 135.21,30.57 L 133.87,30.53 L 132.38,30.53 L 132.50,30.53 Z" fill="rgba(235,85,136,1)"/>
<path d="M 112.17,93.52 L 112.75,94.74 L 113.13,95.38 L 114.89,97.97 L 116.01,99.22 L 118.37,101.67 L 119.65,102.69 L 122.22,104.56 L 123.44,105.11 L 127.04,106.26 L 129.79,106.74 L 131.19,106.83 L 133.97,106.90 L 135.22,106.78 L 137.60,106.43 L 138.48,106.08 L 140.38,105.67 L 141.68,105.63 L 142.14,105.75 L 143.03,106.48 L 143.24,106.99 L 143.33,107.35 L 143.49,108.17 L 143.55,108.72 L 143.67,109.91 L 143.71,110.68 L 143.79,112.34 L 143.82,113.37 L 143.88,115.57 L 143.90,116.89 L 143.93,119.70 L 143.95,121.36 L 143.98,126.07 L 143.98,128.67 L 143.96,129.73 L 143.93,131.72 L 143.89,132.51 L 143.81,133.99 L 143.74,134.57 L 143.59,135.64 L 143.49,136.07 L 143.27,136.84 L 143.13,137.16 L 142.48,138.25 L 142.00,138.77 L 141.10,139.73 L 140.85,140.05 L 140.46,140.57 L 140.45,140.71 L 140.57,140.92 L 140.64,140.93 L 140.11,141.04 L 136.48,141.51 L 134.68,141.71 L 131.13,141.86 L 129.38,141.89 L 126.00,141.70 L 124.35,141.56 L 121.24,141.01 L 119.65,140.67 L 117.05,139.89 L 115.84,139.48 L 113.97,138.54 L 113.12,138.05 L 111.94,136.92 L 110.89,135.00 L 110.84,134.83 L 110.75,134.15 L 110.70,133.76 L 110.62,132.68 L 110.57,132.09 L 110.49,130.67 L 110.45,129.92 L 110.37,128.20 L 110.30,126.42 L 110.19,122.22 L 110.10,115.37 L 110.09,113.67 L 110.09,110.72 L 110.09,109.32 L 110.11,106.91 L 110.13,105.77 L 110.18,103.85 L 110.22,102.95 L 110.30,101.48 L 110.35,100.79 L 110.48,99.69 L 110.55,99.18 L 110.72,98.42 L 111.41,97.08 L 111.68,96.85 L 112.05,96.34 L 112.20,96.07 L 112.32,95.39 L 112.34,95.02 L 112.23,94.07 L 111.93,92.79 M 175.09,121.17 L 172.92,123.66 L 171.81,124.89 L 169.46,127.17 L 168.26,128.28 L 165.74,130.34 L 161.78,133.14 L 160.40,134.02 L 157.38,135.61 L 155.82,136.37 L 155.19,136.63 L 156.91,135.80 L 158.73,134.90 L 159.55,134.45 L 161.12,133.57 L 161.78,133.14 L 164.41,131.27 L 166.27,129.78 L 167.22,128.95 L 171.06,125.39 L 172.89,123.46 L 175.92,120.08 M 186.90,96.24 L 186.45,98.75 L 186.23,99.58 L 186.91,96.08 M 186.70,74.47 L 187.07,77.16 L 187.39,79.92 L 187.55,86.02 L 187.55,89.06 L 187.29,92.06 L 187.36,91.16 L 187.41,89.93 L 187.47,87.39 L 187.47,86.00 L 187.41,82.08 L 187.29,79.68 L 187.19,78.56 L 186.69,74.41 M 133.87,30.53 L 136.74,30.62 L 140.22,31.03 L 140.02,31.15 L 140.07,31.27 L 140.30,31.56 L 140.60,31.77 L 142.28,33.62 L 142.70,34.51 L 142.87,35.05 L 143.19,36.23 L 143.32,36.95 L 143.56,38.47 L 143.64,39.38 L 143.80,41.32 L 143.85,42.46 L 143.94,44.87 L 143.97,46.27 L 144.00,49.21 L 144.00,50.90 L 143.99,55.05 L 143.97,57.37 L 143.94,58.33 L 143.89,60.12 L 143.85,60.84 L 143.76,62.18 L 143.70,62.70 L 143.57,63.66 L 143.48,64.02 L 143.29,64.67 L 143.17,64.90 L 142.64,65.64 L 142.25,65.84 L 140.43,66.25 L 139.05,66.17 L 138.50,65.94 L 135.24,65.23 L 132.62,65.08 L 131.22,65.17 L 128.41,65.45 L 127.08,65.74 L 124.53,66.42 L 123.50,66.90 L 120.16,68.78 L 118.18,70.27 L 117.31,71.11 L 115.66,72.86 L 114.97,73.83 L 113.67,75.82 L 113.16,76.90 L 112.22,79.11 L 111.90,80.28 L 111.41,82.38 L 111.41,82.33 L 111.50,81.45 L 111.59,79.84 L 111.62,79.07 L 111.59,77.75 L 111.56,77.15 L 111.43,76.27 L 111.11,75.57 L 111.03,75.52 L 110.88,75.05 L 110.81,74.77 L 110.68,73.88 L 110.61,73.39 L 110.50,72.13 L 110.45,71.46 L 110.36,69.89 L 110.27,68.26 L 110.16,64.31 L 110.11,62.26 L 110.07,57.83 L 110.06,55.61 L 110.10,51.18 L 110.14,49.00 L 110.26,45.04 L 110.30,44.10 L 110.39,42.39 L 110.44,41.57 L 110.55,40.13 L 110.60,39.46 L 110.74,38.36 L 110.96,37.16 L 111.20,36.25 L 111.67,35.00 L 111.92,34.44 L 112.68,33.68 L 113.13,33.33 L 114.53,32.78 L 114.94,32.65 L 115.93,32.37 L 117.75,31.91 L 118.88,31.63 L 121.37,31.20 L 122.64,31.01 L 125.35,30.74 L 128.10,30.51 M 185.61,70.00 L 185.94,70.96 L 186.46,73.26 L 186.62,74.03 L 186.21,72.30 L 185.48,69.67 M 149.26,32.88 L 151.36,33.59 L 155.40,35.39 L 157.39,36.35 L 161.19,38.62 L 163.05,39.82 L 166.58,42.52 L 168.30,43.93 L 171.52,47.03 L 172.01,47.53 L 169.83,45.45 L 168.44,44.27 L 165.61,41.96 L 164.14,40.88 L 161.15,38.80 L 159.62,37.87 L 156.56,36.09 L 155.02,35.33 L 151.95,33.92 L 150.45,33.37 L 146.19,32.02 Z" fill="rgba(239,107,111,1)"/>
<path d="M 141.02,30.97 L 141.37,30.99 L 142.30,31.12 L 143.30,31.28 L 145.97,31.95 L 150.45,33.37 L 151.95,33.92 L 155.02,35.33 L 156.56,36.09 L 159.62,37.87 L 161.15,38.80 L 164.14,40.88 L 165.61,41.96 L 168.44,44.27 L 169.83,45.45 L 172.43,47.93 L 173.69,49.19 L 175.97,51.77 L 176.19,52.03 L 176.15,52.00 L 175.97,52.00 L 175.78,52.30 L 175.86,52.77 L 176.00,53.11 L 176.33,53.86 L 176.58,54.31 L 177.13,55.26 L 177.47,55.78 L 180.63,61.88 L 182.30,66.53 L 182.91,69.07 L 184.00,74.27 L 184.32,77.00 L 184.81,82.52 L 184.84,85.31 L 184.74,90.90 L 184.47,93.65 L 183.78,99.08 L 183.22,101.65 L 181.94,106.69 L 181.07,108.97 L 179.19,113.37 L 178.03,115.25 L 177.26,116.53 L 176.96,117.09 L 176.40,118.17 L 176.22,118.60 L 175.93,119.38 L 175.89,119.63 L 175.89,120.00 L 175.99,120.00 L 172.89,123.46 L 171.06,125.39 L 167.22,128.95 L 166.27,129.78 L 164.41,131.27 L 161.78,133.14 L 161.12,133.57 L 159.55,134.45 L 158.73,134.90 L 156.91,135.80 L 155.06,136.69 L 151.10,138.34 L 149.15,139.11 L 145.66,140.25 L 144.86,140.48 L 143.49,140.80 L 141.92,141.00 L 141.42,141.00 L 140.81,140.96 L 140.57,140.92 L 140.45,140.71 L 140.46,140.57 L 140.85,140.05 L 141.10,139.73 L 142.00,138.77 L 142.48,138.25 L 143.13,137.16 L 143.27,136.84 L 143.49,136.07 L 143.59,135.64 L 143.74,134.57 L 143.81,133.99 L 143.89,132.51 L 143.93,131.72 L 143.96,129.73 L 143.98,128.67 L 143.98,126.07 L 143.95,121.36 L 143.93,119.70 L 143.90,116.89 L 143.88,115.57 L 143.82,113.37 L 143.79,112.34 L 143.71,110.68 L 143.67,109.91 L 143.55,108.72 L 143.49,108.17 L 143.33,107.35 L 143.24,106.99 L 143.03,106.48 L 142.14,105.75 L 141.68,105.63 L 140.38,105.67 L 138.48,106.08 L 137.60,106.43 L 135.93,106.68 L 136.06,106.65 L 138.02,106.18 L 138.97,105.84 L 140.82,105.09 L 141.70,104.62 L 143.43,103.61 L 144.23,103.02 L 145.79,101.79 L 146.51,101.09 L 147.89,99.66 L 148.50,98.87 L 149.68,97.25 L 150.18,96.38 L 151.12,94.60 L 151.49,93.66 L 152.17,91.76 L 152.41,90.76 L 152.81,88.74 L 152.89,87.70 L 152.98,85.60 L 152.90,84.53 L 152.66,82.36 L 152.41,81.27 L 151.81,79.07 L 151.37,77.97 L 149.91,74.98 L 148.75,73.19 L 148.09,72.39 L 146.72,70.86 L 145.97,70.19 L 144.42,68.92 L 143.59,68.38 L 141.90,67.37 L 141.00,66.96 L 139.20,66.22 L 138.26,65.94 L 136.88,65.59 L 138.50,65.94 L 139.05,66.17 L 140.43,66.25 L 142.25,65.84 L 142.64,65.64 L 143.17,64.90 L 143.29,64.67 L 143.48,64.02 L 143.57,63.66 L 143.70,62.70 L 143.76,62.18 L 143.85,60.84 L 143.89,60.12 L 143.94,58.33 L 143.97,57.37 L 143.99,55.05 L 144.00,50.90 L 144.00,49.21 L 143.97,46.27 L 143.94,44.87 L 143.85,42.46 L 143.80,41.32 L 143.64,39.38 L 143.56,38.47 L 143.32,36.95 L 143.19,36.23 L 142.87,35.05 L 142.70,34.51 L 142.28,33.62 L 140.60,31.77 L 140.30,31.56 L 140.07,31.27 L 140.02,31.15 L 140.24,31.01 L 140.41,30.96 M 185.74,101.70 L 184.30,105.73 L 183.89,106.77 L 182.92,108.95 L 181.23,112.47 L 180.86,113.22 L 180.14,114.37 L 180.22,114.23 L 182.06,110.67 L 182.93,108.73 L 184.60,104.82 L 185.23,103.00 L 186.17,99.85 M 111.35,89.51 L 111.94,92.13 L 112.42,93.38 L 113.50,95.84 L 113.97,96.62 L 113.13,95.38 L 112.75,94.74 L 112.17,93.52 L 111.62,91.83 L 111.34,90.46 L 111.17,88.46 M 111.11,87.80 L 111.11,87.79 L 111.04,86.47 L 111.06,86.13 M 187.41,82.08 L 187.46,85.41 L 187.39,81.83 M 111.79,80.73 L 111.90,80.28 L 112.22,79.11 L 112.86,77.61 M 118.75,69.86 L 117.21,71.22 L 116.50,72.01 L 115.14,73.64 L 114.53,74.55 L 113.38,76.45 L 113.00,77.28 L 113.16,76.90 L 113.67,75.82 L 114.97,73.83 L 115.66,72.86 L 117.31,71.11 L 118.18,70.27 L 119.01,69.65 M 181.25,59.55 L 181.86,60.79 L 182.93,63.06 L 183.44,64.18 L 184.30,66.28 L 185.12,68.35 L 185.57,69.99 L 185.23,69.00 L 182.91,63.22 L 181.10,59.38 L 180.55,58.38 M 119.95,68.94 L 120.16,68.78 L 120.40,68.65 M 124.81,66.37 L 123.90,66.76 L 123.07,67.14 L 123.50,66.90 L 124.53,66.42 L 125.51,66.16 M 135.24,65.23 L 136.13,65.42 L 135.41,65.31 L 134.10,65.16 Z" fill="rgba(244,129,84,1)"/>
<path d="M 176.68,52.43 L 176.97,52.70 L 177.68,53.61 L 178.04,54.12 L 178.87,55.42 L 179.29,56.12 L 180.19,57.72 L 181.10,59.38 L 182.91,63.22 L 185.23,69.00 L 185.67,70.28 L 186.32,72.65 L 186.62,73.84 L 187.01,76.32 L 187.18,77.60 L 187.37,80.57 L 187.47,86.00 L 187.47,88.07 L 187.37,91.43 L 187.30,93.01 L 187.01,95.68 L 186.84,96.97 L 186.32,99.35 L 185.23,103.00 L 184.60,104.82 L 182.93,108.73 L 182.06,110.67 L 180.22,114.23 L 179.76,115.07 L 178.90,116.54 L 178.48,117.24 L 177.71,118.37 L 177.34,118.88 L 176.72,119.57 L 176.02,120.00 L 175.89,120.00 L 175.89,119.63 L 175.93,119.38 L 176.22,118.60 L 176.40,118.17 L 176.96,117.09 L 177.26,116.53 L 178.03,115.25 L 179.19,113.37 L 181.07,108.97 L 181.94,106.69 L 183.22,101.65 L 183.78,99.08 L 184.47,93.65 L 184.74,90.90 L 184.84,85.31 L 184.81,82.52 L 184.32,77.00 L 184.00,74.27 L 182.91,69.07 L 182.30,66.53 L 180.63,61.88 L 177.47,55.78 L 177.13,55.26 L 176.58,54.31 L 176.33,53.86 L 176.00,53.11 L 175.86,52.77 L 175.78,52.30 L 175.97,52.00 L 176.15,52.00 Z" fill="rgba(247,136,35,1)"/>
<path d="M 123.44,105.11 L 122.12,104.51 L 119.76,102.97 L 118.63,102.15 L 116.67,100.23 L 115.74,99.22 L 114.21,96.99 L 113.50,95.84 L 112.42,93.38 L 111.94,92.13 L 111.35,89.51 L 111.12,88.19 L 111.04,85.50 L 111.07,84.15 L 111.54,81.45 L 112.90,77.50 L 113.38,76.45 L 114.53,74.55 L 115.14,73.64 L 116.50,72.01 L 117.21,71.22 L 118.75,69.86 L 119.54,69.21 L 121.23,68.11 L 122.09,67.59 L 123.90,66.76 L 124.81,66.37 L 126.69,65.80 L 128.59,65.30 L 132.50,65.08 L 133.48,65.09 L 135.41,65.31 L 136.38,65.46 L 138.26,65.94 L 139.20,66.22 L 141.00,66.96 L 141.90,67.37 L 143.59,68.38 L 144.42,68.92 L 145.97,70.19 L 146.72,70.86 L 148.09,72.39 L 148.75,73.19 L 149.91,74.98 L 151.37,77.97 L 151.81,79.07 L 152.41,81.27 L 152.66,82.36 L 152.90,84.53 L 152.98,85.60 L 152.89,87.70 L 152.81,88.74 L 152.41,90.76 L 152.17,91.76 L 151.49,93.66 L 151.12,94.60 L 150.18,96.38 L 149.68,97.25 L 148.50,98.87 L 147.89,99.66 L 146.51,101.09 L 145.79,101.79 L 144.23,103.02 L 143.43,103.61 L 141.70,104.62 L 140.82,105.09 L 138.97,105.84 L 138.02,106.18 L 136.06,106.65 L 135.06,106.85 L 133.01,107.02 L 131.98,107.07 L 129.87,106.91 L 128.81,106.79 L 126.67,106.29 L 125.60,105.99 Z" fill="rgba(254,248,249,1)"/>
</g>
</svg>